<mxfile host="app.diagrams.net" agent="Mozilla/5.0 (Windows NT 10.0; Win64; x64) AppleWebKit/537.36 (KHTML, like Gecko) Chrome/133.0.0.0 Safari/537.36" version="26.0.16">
  <diagram id="l_qTuVB2nPChq27-K-Tk" name="Page-1">
    <mxGraphModel dx="1194" dy="1130" grid="0" gridSize="10" guides="0" tooltips="1" connect="0" arrows="1" fold="1" page="0" pageScale="1" pageWidth="827" pageHeight="1169" background="#ffffff" math="0" shadow="0">
      <root>
        <mxCell id="0" />
        <mxCell id="1" parent="0" />
        <mxCell id="100" value="user" style="swimlane;fontStyle=0;childLayout=stackLayout;horizontal=1;startSize=26;fillColor=#e0e0e0;horizontalStack=0;resizeParent=1;resizeLast=0;collapsible=1;marginBottom=0;swimlaneFillColor=#ffffff;align=center;" parent="1" vertex="1">
          <mxGeometry x="-24" y="-32" width="183" height="152" as="geometry" />
        </mxCell>
        <mxCell id="101" value="username : String" style="shape=partialRectangle;top=0;left=0;right=0;bottom=0;align=left;verticalAlign=top;spacingTop=-2;fillColor=none;spacingLeft=34;spacingRight=4;overflow=hidden;rotatable=0;points=[[0,0.5],[1,0.5]];portConstraint=eastwest;dropTarget=0;fontColor=light-dark(#000000,#FFFFFF);" parent="100" vertex="1">
          <mxGeometry y="26" width="183" height="26" as="geometry" />
        </mxCell>
        <mxCell id="102" value="" style="shape=partialRectangle;top=0;left=0;bottom=0;fillColor=none;align=left;verticalAlign=middle;spacingLeft=4;spacingRight=4;overflow=hidden;rotatable=0;points=[];portConstraint=eastwest;part=1;" parent="101" vertex="1" connectable="0">
          <mxGeometry width="30" height="26" as="geometry" />
        </mxCell>
        <mxCell id="103" value="email : String (Unique)" style="shape=partialRectangle;top=0;left=0;right=0;bottom=0;align=left;verticalAlign=top;spacingTop=-2;fillColor=none;spacingLeft=34;spacingRight=4;overflow=hidden;rotatable=0;points=[[0,0.5],[1,0.5]];portConstraint=eastwest;dropTarget=0;fontColor=light-dark(#000000,#FFFFFF);" parent="100" vertex="1">
          <mxGeometry y="52" width="183" height="26" as="geometry" />
        </mxCell>
        <mxCell id="104" value="" style="shape=partialRectangle;top=0;left=0;bottom=0;fillColor=none;align=left;verticalAlign=middle;spacingLeft=4;spacingRight=4;overflow=hidden;rotatable=0;points=[];portConstraint=eastwest;part=1;" parent="103" vertex="1" connectable="0">
          <mxGeometry width="30" height="26" as="geometry" />
        </mxCell>
        <mxCell id="107" value="phone : String (Unique)" style="shape=partialRectangle;top=0;left=0;right=0;bottom=0;align=left;verticalAlign=top;spacingTop=-2;fillColor=none;spacingLeft=34;spacingRight=4;overflow=hidden;rotatable=0;points=[[0,0.5],[1,0.5]];portConstraint=eastwest;dropTarget=0;fontColor=light-dark(#000000,#FFFFFF);" parent="100" vertex="1">
          <mxGeometry y="78" width="183" height="26" as="geometry" />
        </mxCell>
        <mxCell id="108" value="" style="shape=partialRectangle;top=0;left=0;bottom=0;fillColor=none;align=left;verticalAlign=middle;spacingLeft=4;spacingRight=4;overflow=hidden;rotatable=0;points=[];portConstraint=eastwest;part=1;" parent="107" vertex="1" connectable="0">
          <mxGeometry width="30" height="26" as="geometry" />
        </mxCell>
        <mxCell id="109" value="password : String&#xa;" style="shape=partialRectangle;top=0;left=0;right=0;bottom=0;align=left;verticalAlign=top;spacingTop=-2;fillColor=none;spacingLeft=34;spacingRight=4;overflow=hidden;rotatable=0;points=[[0,0.5],[1,0.5]];portConstraint=eastwest;dropTarget=0;fontColor=light-dark(#000000,#FFFFFF);" parent="100" vertex="1">
          <mxGeometry y="104" width="183" height="22" as="geometry" />
        </mxCell>
        <mxCell id="110" value="" style="shape=partialRectangle;top=0;left=0;bottom=0;fillColor=none;align=left;verticalAlign=middle;spacingLeft=4;spacingRight=4;overflow=hidden;rotatable=0;points=[];portConstraint=eastwest;part=1;" parent="109" vertex="1" connectable="0">
          <mxGeometry width="30" height="22" as="geometry" />
        </mxCell>
        <mxCell id="6aqvB_HaMezCFXBeuWkL-128" value="role : String (Default: user)&#xa;" style="shape=partialRectangle;top=0;left=0;right=0;bottom=0;align=left;verticalAlign=top;spacingTop=-2;fillColor=none;spacingLeft=34;spacingRight=4;overflow=hidden;rotatable=0;points=[[0,0.5],[1,0.5]];portConstraint=eastwest;dropTarget=0;fontColor=light-dark(#000000,#FFFFFF);" parent="100" vertex="1">
          <mxGeometry y="126" width="183" height="26" as="geometry" />
        </mxCell>
        <mxCell id="6aqvB_HaMezCFXBeuWkL-129" value="" style="shape=partialRectangle;top=0;left=0;bottom=0;fillColor=none;align=left;verticalAlign=middle;spacingLeft=4;spacingRight=4;overflow=hidden;rotatable=0;points=[];portConstraint=eastwest;part=1;" parent="6aqvB_HaMezCFXBeuWkL-128" vertex="1" connectable="0">
          <mxGeometry width="30" height="26" as="geometry" />
        </mxCell>
        <mxCell id="P1AnSpa-cvkl4W3dByGy-110" value="UserAgent" style="swimlane;fontStyle=0;childLayout=stackLayout;horizontal=1;startSize=26;fillColor=#e0e0e0;horizontalStack=0;resizeParent=1;resizeLast=0;collapsible=1;marginBottom=0;swimlaneFillColor=#ffffff;align=center;fontColor=light-dark(#000000,#FFFFFF);" parent="1" vertex="1">
          <mxGeometry x="335" y="-43" width="183" height="152" as="geometry" />
        </mxCell>
        <mxCell id="P1AnSpa-cvkl4W3dByGy-111" value="ip : String" style="shape=partialRectangle;top=0;left=0;right=0;bottom=0;align=left;verticalAlign=top;spacingTop=-2;fillColor=none;spacingLeft=34;spacingRight=4;overflow=hidden;rotatable=0;points=[[0,0.5],[1,0.5]];portConstraint=eastwest;dropTarget=0;fontColor=light-dark(#000000,#FFFFFF);" parent="P1AnSpa-cvkl4W3dByGy-110" vertex="1">
          <mxGeometry y="26" width="183" height="26" as="geometry" />
        </mxCell>
        <mxCell id="P1AnSpa-cvkl4W3dByGy-112" value="" style="shape=partialRectangle;top=0;left=0;bottom=0;fillColor=none;align=left;verticalAlign=middle;spacingLeft=4;spacingRight=4;overflow=hidden;rotatable=0;points=[];portConstraint=eastwest;part=1;" parent="P1AnSpa-cvkl4W3dByGy-111" vertex="1" connectable="0">
          <mxGeometry width="30" height="26" as="geometry" />
        </mxCell>
        <mxCell id="P1AnSpa-cvkl4W3dByGy-113" value="searchengine : String&#xa;" style="shape=partialRectangle;top=0;left=0;right=0;bottom=0;align=left;verticalAlign=top;spacingTop=-2;fillColor=none;spacingLeft=34;spacingRight=4;overflow=hidden;rotatable=0;points=[[0,0.5],[1,0.5]];portConstraint=eastwest;dropTarget=0;fontColor=light-dark(#000000,#FFFFFF);" parent="P1AnSpa-cvkl4W3dByGy-110" vertex="1">
          <mxGeometry y="52" width="183" height="26" as="geometry" />
        </mxCell>
        <mxCell id="P1AnSpa-cvkl4W3dByGy-114" value="" style="shape=partialRectangle;top=0;left=0;bottom=0;fillColor=none;align=left;verticalAlign=middle;spacingLeft=4;spacingRight=4;overflow=hidden;rotatable=0;points=[];portConstraint=eastwest;part=1;" parent="P1AnSpa-cvkl4W3dByGy-113" vertex="1" connectable="0">
          <mxGeometry width="30" height="26" as="geometry" />
        </mxCell>
        <mxCell id="P1AnSpa-cvkl4W3dByGy-115" value="browser : String" style="shape=partialRectangle;top=0;left=0;right=0;bottom=0;align=left;verticalAlign=top;spacingTop=-2;fillColor=none;spacingLeft=34;spacingRight=4;overflow=hidden;rotatable=0;points=[[0,0.5],[1,0.5]];portConstraint=eastwest;dropTarget=0;fontColor=light-dark(#000000,#FFFFFF);" parent="P1AnSpa-cvkl4W3dByGy-110" vertex="1">
          <mxGeometry y="78" width="183" height="26" as="geometry" />
        </mxCell>
        <mxCell id="P1AnSpa-cvkl4W3dByGy-116" value="" style="shape=partialRectangle;top=0;left=0;bottom=0;fillColor=none;align=left;verticalAlign=middle;spacingLeft=4;spacingRight=4;overflow=hidden;rotatable=0;points=[];portConstraint=eastwest;part=1;" parent="P1AnSpa-cvkl4W3dByGy-115" vertex="1" connectable="0">
          <mxGeometry width="30" height="26" as="geometry" />
        </mxCell>
        <mxCell id="P1AnSpa-cvkl4W3dByGy-117" value="os : String" style="shape=partialRectangle;top=0;left=0;right=0;bottom=0;align=left;verticalAlign=top;spacingTop=-2;fillColor=none;spacingLeft=34;spacingRight=4;overflow=hidden;rotatable=0;points=[[0,0.5],[1,0.5]];portConstraint=eastwest;dropTarget=0;fontColor=light-dark(#000000,#FFFFFF);" parent="P1AnSpa-cvkl4W3dByGy-110" vertex="1">
          <mxGeometry y="104" width="183" height="22" as="geometry" />
        </mxCell>
        <mxCell id="P1AnSpa-cvkl4W3dByGy-118" value="" style="shape=partialRectangle;top=0;left=0;bottom=0;fillColor=none;align=left;verticalAlign=middle;spacingLeft=4;spacingRight=4;overflow=hidden;rotatable=0;points=[];portConstraint=eastwest;part=1;" parent="P1AnSpa-cvkl4W3dByGy-117" vertex="1" connectable="0">
          <mxGeometry width="30" height="22" as="geometry" />
        </mxCell>
        <mxCell id="P1AnSpa-cvkl4W3dByGy-119" value="device : String" style="shape=partialRectangle;top=0;left=0;right=0;bottom=0;align=left;verticalAlign=top;spacingTop=-2;fillColor=none;spacingLeft=34;spacingRight=4;overflow=hidden;rotatable=0;points=[[0,0.5],[1,0.5]];portConstraint=eastwest;dropTarget=0;fontColor=light-dark(#000000,#FFFFFF);" parent="P1AnSpa-cvkl4W3dByGy-110" vertex="1">
          <mxGeometry y="126" width="183" height="26" as="geometry" />
        </mxCell>
        <mxCell id="P1AnSpa-cvkl4W3dByGy-120" value="" style="shape=partialRectangle;top=0;left=0;bottom=0;fillColor=none;align=left;verticalAlign=middle;spacingLeft=4;spacingRight=4;overflow=hidden;rotatable=0;points=[];portConstraint=eastwest;part=1;" parent="P1AnSpa-cvkl4W3dByGy-119" vertex="1" connectable="0">
          <mxGeometry width="30" height="26" as="geometry" />
        </mxCell>
        <mxCell id="P1AnSpa-cvkl4W3dByGy-121" style="edgeStyle=orthogonalEdgeStyle;rounded=0;orthogonalLoop=1;jettySize=auto;html=1;" parent="1" source="103" target="P1AnSpa-cvkl4W3dByGy-110" edge="1">
          <mxGeometry relative="1" as="geometry" />
        </mxCell>
        <mxCell id="P1AnSpa-cvkl4W3dByGy-122" value="UserAgent" style="swimlane;fontStyle=0;childLayout=stackLayout;horizontal=1;startSize=26;fillColor=#e0e0e0;horizontalStack=0;resizeParent=1;resizeLast=0;collapsible=1;marginBottom=0;swimlaneFillColor=#ffffff;align=center;fontColor=light-dark(#000000,#FFFFFF);" parent="1" vertex="1">
          <mxGeometry x="334" y="174" width="183" height="183" as="geometry" />
        </mxCell>
        <mxCell id="P1AnSpa-cvkl4W3dByGy-123" value="firstname : String" style="shape=partialRectangle;top=0;left=0;right=0;bottom=0;align=left;verticalAlign=top;spacingTop=-2;fillColor=none;spacingLeft=34;spacingRight=4;overflow=hidden;rotatable=0;points=[[0,0.5],[1,0.5]];portConstraint=eastwest;dropTarget=0;fontColor=light-dark(#000000, #ffffff);" parent="P1AnSpa-cvkl4W3dByGy-122" vertex="1">
          <mxGeometry y="26" width="183" height="26" as="geometry" />
        </mxCell>
        <mxCell id="P1AnSpa-cvkl4W3dByGy-124" value="" style="shape=partialRectangle;top=0;left=0;bottom=0;fillColor=none;align=left;verticalAlign=middle;spacingLeft=4;spacingRight=4;overflow=hidden;rotatable=0;points=[];portConstraint=eastwest;part=1;" parent="P1AnSpa-cvkl4W3dByGy-123" vertex="1" connectable="0">
          <mxGeometry width="30" height="26" as="geometry" />
        </mxCell>
        <mxCell id="P1AnSpa-cvkl4W3dByGy-125" value="lastname : String" style="shape=partialRectangle;top=0;left=0;right=0;bottom=0;align=left;verticalAlign=top;spacingTop=-2;fillColor=none;spacingLeft=34;spacingRight=4;overflow=hidden;rotatable=0;points=[[0,0.5],[1,0.5]];portConstraint=eastwest;dropTarget=0;fontColor=light-dark(#000000,#FFFFFF);" parent="P1AnSpa-cvkl4W3dByGy-122" vertex="1">
          <mxGeometry y="52" width="183" height="26" as="geometry" />
        </mxCell>
        <mxCell id="P1AnSpa-cvkl4W3dByGy-126" value="" style="shape=partialRectangle;top=0;left=0;bottom=0;fillColor=none;align=left;verticalAlign=middle;spacingLeft=4;spacingRight=4;overflow=hidden;rotatable=0;points=[];portConstraint=eastwest;part=1;" parent="P1AnSpa-cvkl4W3dByGy-125" vertex="1" connectable="0">
          <mxGeometry width="30" height="26" as="geometry" />
        </mxCell>
        <mxCell id="P1AnSpa-cvkl4W3dByGy-127" value="email : String" style="shape=partialRectangle;top=0;left=0;right=0;bottom=0;align=left;verticalAlign=top;spacingTop=-2;fillColor=none;spacingLeft=34;spacingRight=4;overflow=hidden;rotatable=0;points=[[0,0.5],[1,0.5]];portConstraint=eastwest;dropTarget=0;fontColor=light-dark(#000000,#F2F5FF);" parent="P1AnSpa-cvkl4W3dByGy-122" vertex="1">
          <mxGeometry y="78" width="183" height="26" as="geometry" />
        </mxCell>
        <mxCell id="P1AnSpa-cvkl4W3dByGy-128" value="" style="shape=partialRectangle;top=0;left=0;bottom=0;fillColor=none;align=left;verticalAlign=middle;spacingLeft=4;spacingRight=4;overflow=hidden;rotatable=0;points=[];portConstraint=eastwest;part=1;" parent="P1AnSpa-cvkl4W3dByGy-127" vertex="1" connectable="0">
          <mxGeometry width="30" height="26" as="geometry" />
        </mxCell>
        <mxCell id="P1AnSpa-cvkl4W3dByGy-129" value="phone : String&#xa;" style="shape=partialRectangle;top=0;left=0;right=0;bottom=0;align=left;verticalAlign=top;spacingTop=-2;fillColor=none;spacingLeft=34;spacingRight=4;overflow=hidden;rotatable=0;points=[[0,0.5],[1,0.5]];portConstraint=eastwest;dropTarget=0;fontColor=light-dark(#000000,#FFFFFF);" parent="P1AnSpa-cvkl4W3dByGy-122" vertex="1">
          <mxGeometry y="104" width="183" height="22" as="geometry" />
        </mxCell>
        <mxCell id="P1AnSpa-cvkl4W3dByGy-130" value="" style="shape=partialRectangle;top=0;left=0;bottom=0;fillColor=none;align=left;verticalAlign=middle;spacingLeft=4;spacingRight=4;overflow=hidden;rotatable=0;points=[];portConstraint=eastwest;part=1;" parent="P1AnSpa-cvkl4W3dByGy-129" vertex="1" connectable="0">
          <mxGeometry width="30" height="22" as="geometry" />
        </mxCell>
        <mxCell id="P1AnSpa-cvkl4W3dByGy-131" value="address : String" style="shape=partialRectangle;top=0;left=0;right=0;bottom=0;align=left;verticalAlign=top;spacingTop=-2;fillColor=none;spacingLeft=34;spacingRight=4;overflow=hidden;rotatable=0;points=[[0,0.5],[1,0.5]];portConstraint=eastwest;dropTarget=0;fontColor=light-dark(#000000,#FFFFFF);" parent="P1AnSpa-cvkl4W3dByGy-122" vertex="1">
          <mxGeometry y="126" width="183" height="26" as="geometry" />
        </mxCell>
        <mxCell id="P1AnSpa-cvkl4W3dByGy-132" value="" style="shape=partialRectangle;top=0;left=0;bottom=0;fillColor=none;align=left;verticalAlign=middle;spacingLeft=4;spacingRight=4;overflow=hidden;rotatable=0;points=[];portConstraint=eastwest;part=1;" parent="P1AnSpa-cvkl4W3dByGy-131" vertex="1" connectable="0">
          <mxGeometry width="30" height="26" as="geometry" />
        </mxCell>
        <mxCell id="P1AnSpa-cvkl4W3dByGy-133" value="address : String" style="shape=partialRectangle;top=0;left=0;right=0;bottom=0;align=left;verticalAlign=top;spacingTop=-2;fillColor=none;spacingLeft=34;spacingRight=4;overflow=hidden;rotatable=0;points=[[0,0.5],[1,0.5]];portConstraint=eastwest;dropTarget=0;fontColor=light-dark(#000000,#EFFFF8);" parent="P1AnSpa-cvkl4W3dByGy-122" vertex="1">
          <mxGeometry y="152" width="183" height="26" as="geometry" />
        </mxCell>
        <mxCell id="P1AnSpa-cvkl4W3dByGy-134" value="" style="shape=partialRectangle;top=0;left=0;bottom=0;fillColor=none;align=left;verticalAlign=middle;spacingLeft=4;spacingRight=4;overflow=hidden;rotatable=0;points=[];portConstraint=eastwest;part=1;" parent="P1AnSpa-cvkl4W3dByGy-133" vertex="1" connectable="0">
          <mxGeometry width="30" height="26" as="geometry" />
        </mxCell>
        <mxCell id="zriC58p9Sxbm2OPY24aS-110" style="edgeStyle=orthogonalEdgeStyle;rounded=0;orthogonalLoop=1;jettySize=auto;html=1;entryX=-0.005;entryY=0.231;entryDx=0;entryDy=0;entryPerimeter=0;" edge="1" parent="1" source="107" target="P1AnSpa-cvkl4W3dByGy-127">
          <mxGeometry relative="1" as="geometry" />
        </mxCell>
      </root>
    </mxGraphModel>
  </diagram>
</mxfile>
